<?xml version="1.0" standalone="no"?>
<!DOCTYPE svg PUBLIC "-//W3C//DTD SVG 20010904//EN"
 "http://www.w3.org/TR/2001/REC-SVG-20010904/DTD/svg10.dtd">
<svg version="1.0" xmlns="http://www.w3.org/2000/svg"
 width="320.000000pt" height="300.000000pt" viewBox="0 0 320.000000 300.000000"
 preserveAspectRatio="xMidYMid meet">

<g transform="translate(0.000000,300.000000) scale(0.100000,-0.100000)"
fill="#000000" stroke="none">
<path d="M1453 2760 c-215 -24 -404 -93 -583 -213 -95 -63 -261 -230 -323
-323 -249 -377 -285 -836 -98 -1230 213 -447 635 -716 1126 -717 345 -1 644
122 885 363 178 177 288 380 342 630 28 125 30 355 5 483 -84 426 -377 774
-783 931 -166 64 -402 96 -571 76z m104 -688 c-15 -16 -17 -49 -17 -258 0
-229 -1 -242 -22 -284 -34 -65 -86 -102 -151 -108 -99 -8 -180 49 -206 143
-20 73 -19 75 53 75 62 0 64 -1 69 -29 8 -39 32 -61 67 -61 54 0 60 23 60 227
l0 183 -44 0 c-36 0 -48 -5 -65 -26 -12 -15 -21 -38 -21 -51 0 -23 -2 -24 -62
-21 l-63 3 3 45 c5 78 60 149 131 170 14 5 84 9 155 9 124 1 129 0 113 -17z
m397 -19 c48 -34 76 -86 79 -145 l2 -43 -62 -3 c-61 -3 -63 -2 -63 21 0 34
-36 77 -66 77 -13 0 -33 -9 -44 -20 -19 -19 -20 -33 -20 -205 l0 -185 41 0
c55 0 77 14 85 55 l6 35 65 0 65 0 -7 -47 c-8 -56 -24 -90 -57 -120 -46 -43
-89 -53 -229 -53 -125 0 -131 1 -116 18 13 14 16 56 19 269 l3 251 30 43 c17
23 50 53 75 67 60 32 136 26 194 -15z m-833 -816 c20 -15 39 -51 39 -71 0 -26
-56 -21 -63 5 -4 15 -12 20 -29 17 -22 -3 -23 -8 -26 -90 l-3 -88 27 0 c17 0
28 6 31 20 4 14 14 20 34 20 39 0 39 -32 0 -71 -27 -26 -36 -29 -96 -29 -37 0
-64 4 -61 9 4 5 6 59 7 120 0 104 2 113 26 141 19 23 33 30 61 30 21 0 44 -6
53 -13z m213 -18 c24 -28 26 -39 26 -115 0 -88 -15 -136 -45 -148 -9 -3 -34
-6 -55 -6 -31 0 -43 6 -65 32 -26 30 -27 36 -23 124 3 81 6 95 27 118 37 39
100 37 135 -5z m212 5 c22 -21 25 -31 20 -67 -7 -51 -7 -50 0 -109 5 -41 3
-50 -20 -72 -22 -23 -34 -26 -93 -26 l-68 0 8 128 c4 70 6 137 4 150 -4 21 -1
22 60 22 55 0 67 -3 89 -26z m246 -124 l3 -150 -40 0 -40 0 4 46 c3 47 -7 64
-38 64 -10 0 -12 -13 -9 -55 l5 -55 -40 0 c-32 0 -38 3 -33 16 3 9 6 65 6 125
0 103 1 111 25 134 21 21 33 25 89 25 l65 0 3 -150z m110 30 l-3 -120 30 0
c37 0 61 31 61 80 1 33 2 34 15 16 10 -13 15 -44 15 -94 0 -63 -2 -73 -16 -68
-9 3 -53 6 -99 6 l-83 0 10 44 c5 25 8 92 6 150 l-3 106 35 0 35 0 -3 -120z
m328 87 c0 -32 -1 -33 -36 -29 l-35 4 3 -121 3 -121 -35 0 -35 0 3 121 3 121
-35 -4 c-35 -4 -36 -3 -36 29 l0 33 100 0 100 0 0 -33z"/>
<path d="M1242 1103 c3 -80 5 -88 23 -88 18 0 20 8 23 88 l3 87 -26 0 -26 0 3
-87z"/>
<path d="M1460 1161 c0 -31 13 -39 38 -22 21 13 10 46 -16 49 -19 3 -22 -1
-22 -27z"/>
<path d="M1460 1040 c0 -33 19 -40 40 -15 16 20 5 45 -20 45 -16 0 -20 -7 -20
-30z"/>
<path d="M1677 1183 c-4 -3 -7 -19 -7 -35 0 -23 4 -28 24 -28 20 0 25 6 28 35
3 30 1 35 -17 35 -12 0 -25 -3 -28 -7z"/>
</g>
</svg>
